<?xml version="1.0" encoding="UTF-8"?>
<svg id="Layer_1" data-name="Layer 1" xmlns="http://www.w3.org/2000/svg" width="200" height="200" viewBox="0 0 200 200">
  <defs>
    <style>
      .cls-1 {
        fill: #fff;
      }

      .cls-2 {
        fill: #1b2746;
      }
    </style>
  </defs>
  <path class="cls-2" d="M200,38.771v-6.266h-15.38v-.629c0-7.468-6.053-13.521-13.521-13.521h-3.671V1.569h-6.266V18.354h-6.569V1.569h-6.266V18.354h-6.571V1.569h-6.266V18.354h-6.569V1.569h-6.266V18.354h-6.569V1.569h-6.267V18.354h-6.57V1.569h-6.266V18.354h-6.569V1.569h-6.266V18.354h-6.57V1.569h-6.266V18.354h-6.57V1.569h-6.266V18.354h-6.57V1.569h-6.266V18.354h-6.57V1.569h-6.27V18.354h-3.67c-7.467,0-13.521,6.053-13.521,13.521v.629H0v6.266H15.608v6.569H0v6.266H15.608v6.57H0v6.266H15.608v6.57H0v6.266H15.608v6.57H0v6.266H15.608v6.57H0v6.266H15.608v6.57H0v6.266H15.608v6.569H0v6.266H15.608v6.569H0v6.266H15.608v6.571H0v6.266H15.608v6.569H0v6.266H15.608v.629c0,7.467,6.054,13.521,13.521,13.521h3.67v17.154h6.266v-17.154h6.57v17.154h6.266v-17.154h6.57v17.154h6.266v-17.154h6.57v17.154h6.266v-17.154h6.57v17.154h6.266v-17.154h6.569v17.154h6.266v-17.154h6.57v17.154h6.267v-17.154h6.569v17.154h6.266v-17.154h6.569v17.154h6.266v-17.154h6.571v17.154h6.266v-17.154h6.569v17.154h6.266v-17.154h3.671c7.468,0,13.521-6.054,13.521-13.521v-.629h15.385v-6.266h-15.38v-6.569h15.38v-6.266h-15.38v-6.571h15.38v-6.266h-15.38v-6.569h15.38v-6.266h-15.38v-6.569h15.38v-6.266h-15.38v-6.57h15.38v-6.266h-15.38v-6.57h15.38v-6.266h-15.38v-6.57h15.38v-6.265h-15.38v-6.57h15.38v-6.266h-15.38v-6.57h15.38v-6.266h-15.38v-6.569h15.38Z"/>
  <g>
    <path class="cls-1" d="M71.935,93.139v.577h-4.424c0-2.308-.865-3.398-2.5-3.398-1.827,0-2.628,.962-2.628,2.661,0,1.667,.641,2.373,2.372,3.11l3.526,1.539c3.046,1.314,4.392,2.854,4.392,6.059,0,4.745-2.757,7.021-7.951,7.021-2.148,0-4.135-.449-5.354-1.507-1.282-1.09-1.924-2.821-1.924-5.386v-.705h4.617v.608c0,2.854,1.122,3.591,3.045,3.591,1.635,0,2.757-1.058,2.757-2.821,0-1.41-.321-2.372-1.956-3.014l-2.789-1.122c-3.142-1.25-5.354-2.661-5.354-6.7,0-4.328,2.5-6.732,7.085-6.732,3.975,0,7.085,1.603,7.085,6.22Z"/>
    <path class="cls-1" d="M88.38,87.368v3.783h-5.001v19.106h-4.617v-19.106h-5.001v-3.783h14.619Z"/>
    <path class="cls-1" d="M97.324,87.368l3.27,16.157h.064l3.302-16.157h6.829v22.89h-4.232v-18.273h-.063l-4.071,18.273h-3.591l-4.071-18.273h-.064v18.273h-4.231v-22.89h6.86Z"/>
    <path class="cls-1" d="M125.951,93.459c0,2.437-1.154,4.232-3.526,4.873v.064c2.757,.577,4.2,2.308,4.2,5.289,0,4.425-2.341,7.021-6.444,7.021-4.328,0-6.443-2.757-6.443-6.604h2.821c.096,2.789,1.475,4.488,3.622,4.488,2.276,0,3.623-1.539,3.623-4.681,0-2.885-1.539-4.328-4.008-4.328h-1.538v-2.116h1.442c2.147,0,3.43-1.507,3.43-4.007,0-2.437-1.058-3.783-2.949-3.783-2.18,0-3.27,1.539-3.27,4.328v.096h-2.821c0-4.135,2.116-6.54,6.027-6.54s5.834,2.309,5.834,5.899Z"/>
    <path class="cls-1" d="M141.819,93.62c0,3.078-1.186,5.065-3.462,7.021l-3.719,3.237c-1.314,1.122-2.116,2.405-2.469,3.88h9.746v2.5h-12.695c0-1.122,.225-2.66,.705-3.814,.802-1.828,1.699-3.11,3.174-4.553,.609-.609,1.314-1.154,2.18-1.891,.897-.77,2.212-1.795,2.981-3.11,.481-.833,.737-1.827,.737-2.949,0-2.308-1.153-4.071-3.302-4.071-2.309,0-3.591,1.603-3.591,4.905h-2.821c0-4.712,2.181-7.213,6.477-7.213,3.943,0,6.059,2.533,6.059,6.059Z"/>
  </g>
</svg>