<?xml version="1.0" encoding="UTF-8" standalone="no"?>
<!-- Created with Inkscape (http://www.inkscape.org/) -->

<svg
   xmlns:dc="http://purl.org/dc/elements/1.1/"
   xmlns:cc="http://creativecommons.org/ns#"
   xmlns:rdf="http://www.w3.org/1999/02/22-rdf-syntax-ns#"
   xmlns:svg="http://www.w3.org/2000/svg"
   xmlns="http://www.w3.org/2000/svg"
   xmlns:sodipodi="http://sodipodi.sourceforge.net/DTD/sodipodi-0.dtd"
   xmlns:inkscape="http://www.inkscape.org/namespaces/inkscape"
   width="210mm"
   height="280mm"
   viewBox="0 0 210 280"
   version="1.1"
   id="svg2464"
   inkscape:version="0.92.4 (5da689c313, 2019-01-14)"
   sodipodi:docname="bulbicon.svg">
  <defs
     id="defs2458">
    <filter
       style="color-interpolation-filters:sRGB"
       inkscape:label="Drop Shadow"
       id="filter4322">
      <feFlood
         flood-opacity="0.259"
         flood-color="rgb(0,0,0)"
         result="flood"
         id="feFlood4324" />
      <feComposite
         in="flood"
         in2="SourceGraphic"
         operator="in"
         result="composite1"
         id="feComposite4326" />
      <feGaussianBlur
         stdDeviation="2.4"
         result="blur"
         id="feGaussianBlur4328" />
      <feOffset
         dx="1.8"
         dy="2.2"
         result="offset"
         id="feOffset4330" />
      <feComposite
         in="SourceGraphic"
         in2="offset"
         operator="over"
         result="composite2"
         id="feComposite4332" />
    </filter>
    <filter
       style="color-interpolation-filters:sRGB"
       inkscape:label="Drop Shadow"
       id="filter4161">
      <feFlood
         flood-opacity="0.301"
         flood-color="rgb(0,0,0)"
         result="flood"
         id="feFlood4163" />
      <feComposite
         in="flood"
         in2="SourceGraphic"
         operator="in"
         result="composite1"
         id="feComposite4165" />
      <feGaussianBlur
         stdDeviation="2.3"
         result="blur"
         id="feGaussianBlur4167" />
      <feOffset
         dx="1.8"
         dy="3.3"
         result="offset"
         id="feOffset4169" />
      <feComposite
         in="SourceGraphic"
         in2="offset"
         operator="over"
         result="composite2"
         id="feComposite4171" />
    </filter>
  </defs>
  <sodipodi:namedview
     id="base"
     pagecolor="#ffffff"
     bordercolor="#666666"
     borderopacity="1.0"
     inkscape:pageopacity="0.0"
     inkscape:pageshadow="2"
     inkscape:zoom="5.6"
     inkscape:cx="281.42168"
     inkscape:cy="681.95346"
     inkscape:document-units="mm"
     inkscape:current-layer="layer1"
     showgrid="false"
     inkscape:window-width="1920"
     inkscape:window-height="1001"
     inkscape:window-x="-9"
     inkscape:window-y="-9"
     inkscape:window-maximized="1" />
  <metadata
     id="metadata2461">
    <rdf:RDF>
      <cc:Work
         rdf:about="">
        <dc:format>image/svg+xml</dc:format>
        <dc:type
           rdf:resource="http://purl.org/dc/dcmitype/StillImage" />
        <dc:title></dc:title>
      </cc:Work>
    </rdf:RDF>
  </metadata>
  <g
     inkscape:label="Layer 1"
     inkscape:groupmode="layer"
     id="layer1"
     transform="translate(0,-17)">
    <g
       transform="matrix(0.26458333,0,0,0.26458333,-1032.2708,-235.01411)"
       id="g3014">
      <path
         transform="matrix(0.06391816,0,0,0.06391816,3932.6617,1217.8291)"
         style="fill-opacity:1;filter:url(#filter4322)"
         d="m 4005.7957,1592.429 h 22.6876 c 3.9278,0 7.0899,3.162 7.0899,7.0898 v 22.6876 c 0,3.9278 -3.1621,7.0899 -7.0899,7.0899 h -22.6876 c -3.9278,0 -7.0899,-3.1621 -7.0899,-7.0899 v -22.6876 c 0,-3.9278 3.1621,-7.0898 7.0899,-7.0898 z"
         id="rect1778" />
      <path
         transform="matrix(0.05118702,0,0,0.05118702,4180.9978,1303.3799)"
         id="path1788"
         d="m 134.91,82.485 c 9.397,-2.794 19.24,-4.022 29.025,-3.718 17.89,1.236 35.443,7.905 49.599,19.16 10.553,8.365 18.9,19.453 24.601,31.744 6.197,13.196 8.49,28.03 8.104,42.572 -1.293,19.836 -9.64,39.024 -22.866,53.598 -1.739,1.961 -3.695,3.702 -5.509,5.588 -5.598,5.707 -10.637,11.976 -15.155,18.596 -2.341,3.476 -3.759,7.461 -5.399,11.3 -0.774,1.851 -1.757,3.606 -2.472,5.483 -2.021,5.195 -2.819,10.755 -4.107,16.162 -1.1,4.628 -1.21999,12.98577 -1.70099,17.69277 0,0 -51.12793,-0.74896 -51.33205,-0.78805 -0.232,-6.917 -2.44796,-18.04172 -5.34296,-24.30372 -2.705,-5.965 -5.164,-12.045 -7.914,-17.987 -3.758,-7.245 -8.078,-14.224 -13.289,-20.479 -3.764,-4.821 -8.621,-8.567 -12.795,-12.986 C 78.72,203.094 70.637,171.665 77.46,143.502 80.986,128.961 88.4,115.443 98.624,104.697 108.542,94.249 121.222,86.573 134.912,82.502 Z"
         inkscape:connector-curvature="0"
         style="fill-opacity:1;filter:url(#filter4161)"
         sodipodi:nodetypes="ccccccccccccccccccccc" />
      <path
         inkscape:export-ydpi="90"
         inkscape:export-xdpi="90"
         inkscape:export-filename="C:\Users\Admin\logotest1.png"
         sodipodi:nodetypes="csssssc"
         inkscape:connector-curvature="0"
         id="path1796"
         d="m 4188.7536,1318.4472 c 0,0 -0.046,-0.6748 0.1041,-1.2707 0.3785,-1.501 1.0044,-1.6484 1.8535,-2.6229 0.6321,-0.7254 1.7031,-1.8268 1.4894,-3.4752 -0.2317,-1.7873 -1.857,-2.5332 -3.1111,-2.5154 -1.156,0.016 -2.1333,0.5541 -2.5486,1.688 -0.5409,1.4769 0.099,2.6147 0.099,2.6147" />
      <g
         style="fill-opacity:1"
         transform="matrix(0.85155533,0,0,0.85155533,625.18691,190.50092)"
         id="g2420">
        <path
           sodipodi:nodetypes="ccccscccsssssccsssssccccscccccccccccssssscccccscc"
           style="fill-opacity:1"
           inkscape:connector-curvature="0"
           d="m 4180.592,1312.3665 c 0.169,0.168 0.442,0.168 0.611,0 0.168,-0.169 0.168,-0.442 0,-0.61 l -1.832,-1.834 c -0.168,-0.168 -0.442,-0.168 -0.61,0 -0.169,0.169 -0.169,0.442 0,0.611 z m -1.159,4.274 c 0,-0.239 -0.193,-0.432 -0.432,-0.432 h -2.591 c -0.239,0 -0.432,0.193 -0.432,0.432 0,0.239 0.193,0.432 0.432,0.432 h 2.591 c 0.238,0 0.432,-0.193 0.432,-0.432 m 6.045,-6.045 c 0.238,0 0.432,-0.193 0.432,-0.432 v -2.59 c 0,-0.24 -0.194,-0.433 -0.432,-0.433 -0.238,0 -0.432,0.193 -0.432,0.432 v 2.59 c 0,0.24 0.194,0.433 0.432,0.433 m 4.886,1.771 1.832,-1.833 c 0.169,-0.168 0.169,-0.442 0,-0.611 -0.169,-0.168 -0.442,-0.168 -0.61,0 l -1.833,1.833 c -0.169,0.168 -0.169,0.441 0,0.61 0.168,0.169 0.442,0.169 0.611,0 m -9.772,8.548 -1.832,1.833 c -0.169,0.168 -0.169,0.441 0,0.61 0.168,0.169 0.442,0.169 0.61,0 l 1.833,-1.832 c 0.168,-0.169 0.168,-0.442 0,-0.611 -0.168,-0.168 -0.442,-0.168 -0.611,0 m 13.954,-4.706 h -2.591 c -0.238,0 -0.433,0.193 -0.433,0.432 0,0.239 0.194,0.432 0.433,0.432 h 2.591 c 0.238,0 0.432,-0.193 0.432,-0.432 0,-0.239 -0.193,-0.432 -0.432,-0.432 m -4.182,4.706 c -0.169,-0.168 -0.442,-0.168 -0.611,0 -0.169,0.169 -0.169,0.442 0,0.611 l 1.833,1.832 c 0.168,0.169 0.441,0.169 0.61,0 0.169,-0.169 0.169,-0.442 0,-0.61 z"
           id="path2418" />
      </g>
    </g>
  </g>
</svg>
